PathFileType	4	(X/Y/Z)	C:\Users\°ÂÌØÂü\Desktop\20210112\bx_y_10_1802-Unnamed.trc
DataRate	CameraRate	NumFrames	NumMarkers	Units	OrigDataRate	OrigDataStartFrame	OrigNumFrames
50.00	50.00	       6	0	mm	50.00	408	       652
Frame#	Time	
		

408	8.140	-726.62109	240.62914	692.92365	-804.58392	-76.83757	657.49109	-696.86365	152.34369	208.98186	-572.77911	300.22900	513.60632	-534.88959	-14.75334	463.23654	-632.19788	295.78558	460.06204	-521.66888	252.72787	475.59930	-701.47369	81.86140	208.90286				-517.84418	-72.03018	142.25479	-665.34167	-62.13278	167.73476	-707.15179	318.44302	586.46704	-625.21771	-72.38222	169.04778	-882.61194	296.15863	144.60854	-574.61951	-65.47935	510.04678	-602.20251	19.11498	165.43037	-559.75488	-42.75233	162.98354	-593.86261	222.71307	172.78679	-667.45496	297.43066	160.50592	-630.66852	305.90979	161.31265	-559.94153	263.26251	162.89825	-528.39655	304.27173	146.29654	-245.09908	131.12105	1075.39307	-436.45056	286.21783	877.67719	-796.91150	307.40512	677.90192	-672.96747	56.20296	152.91173	-789.75555	166.24602	189.67522	-759.84113	221.67220	204.92464	-589.18427	-68.35881	547.22504	-755.52460	0.55688	209.99036	-789.22516	65.79078	179.19540	-532.38672	193.60843	535.42114	-644.60663	-60.47532	453.63553	-876.28003	-78.81476	141.55153	-673.72888	172.47299	153.50175				-728.17657	-15.72014	695.79504	-433.38306	-30.43993	874.08008	-689.91425	-81.43584	582.28729				-1036.10266	111.20679	732.81622	
409	8.160	-726.22144	239.20947	693.85394	-803.65649	-77.98290	659.00958	-696.92828	152.30479	208.87813	-573.27875	299.66043	514.44629	-534.69147	-14.87916	463.35446	-632.15192	295.13876	460.52142	-521.66309	252.09903	475.52170	-701.47400	81.97912	208.84459	-603.74426	300.42923	543.77234	-517.76898	-72.07461	142.56215	-665.35767	-61.99080	167.53279	-706.52917	317.67920	588.06897	-625.18951	-72.28144	168.41287	-882.59009	295.93652	144.44270	-574.70233	-65.39180	509.83121	-602.30542	19.99810	164.89699	-559.85541	-42.47480	162.72281	-593.76648	222.69562	172.77139	-667.64648	297.56393	160.47093	-630.64465	305.74136	161.39600	-559.97430	263.21039	162.99272	-528.24835	304.48935	146.43700	-244.33965	129.43578	1077.03992	-435.29575	285.02313	879.47565	-796.28912	306.58646	679.45807	-673.06433	56.68425	153.01784	-789.70276	166.19388	189.68808	-759.84113	221.67220	204.92464	-589.49298	-68.09895	547.03101	-754.85950	0.30873	210.22952	-789.12701	65.63911	179.36099	-532.39569	192.85403	535.22693	-644.39850	-60.53062	453.37595	-875.97748	-78.88188	141.21204	-673.72888	172.47299	153.50175				-727.37347	-16.41633	696.31622	-431.73615	-31.73673	875.19238	-690.06079	-81.76842	582.62866				-1035.08752	110.24037	735.48602	
410	8.180	-725.06702	238.95207	695.47552	-803.09814	-78.69399	659.82697	-696.83118	152.28740	208.67119	-572.60120	298.25668	514.56830	-534.75653	-15.50338	462.85492	-632.09534	293.77936	460.66779	-521.34033	250.66782	475.93378	-701.60687	81.94848	208.84016	-603.92395	299.37006	544.41895	-517.76898	-72.07461	142.56215	-665.32654	-62.35296	167.47504	-706.14197	316.06897	588.96588	-625.11346	-72.42008	168.42686	-882.71173	296.15213	144.50174	-574.55908	-66.21805	509.94058	-602.02271	19.60396	164.72427	-560.07813	-42.82203	162.87758	-593.93701	222.42880	172.94633	-667.57013	297.50269	160.51892	-630.66754	305.50412	161.51225	-560.02051	263.17529	162.93109	-528.24835	304.48935	146.43700	-243.60603	128.04973	1078.99072	-434.29089	284.12527	881.14905	-795.51324	305.94925	681.49506	-673.06451	56.50845	153.08594	-789.84875	166.11983	189.72137	-759.69824	221.37346	204.96484	-588.85980	-69.55727	547.47260	-755.39679	0.50996	209.83960	-789.12701	65.63911	179.36099	-531.99384	191.89789	534.86908	-644.44269	-60.81965	453.30298	-875.97748	-78.88188	141.21204	-673.72888	172.47299	153.50175	-549.79285	44.35802	539.07367	-726.09058	-17.70637	697.61798	-430.50259	-32.82608	876.31519	-689.53619	-82.52791	582.89648				-1034.05664	109.21354	737.56702	
411	8.200	-723.92401	237.81885	696.72809	-802.43494	-79.77620	661.00903	-696.83118	152.28740	208.67119	-572.81958	297.34280	515.03912	-534.51385	-15.78027	462.98514	-631.88226	293.60712	461.14063	-521.28333	250.06094	475.99191	-701.18005	81.57306	208.47948	-603.19397	297.71637	544.64954	-517.80518	-72.13521	142.87148	-665.61481	-62.55677	167.17583	-705.93768	315.30545	589.94299	-625.06134	-72.70316	168.55153	-882.66003	296.11053	144.51537	-574.73926	-66.90435	509.68619	-602.10681	19.40478	165.18448	-559.88507	-42.98951	163.04134	-593.90649	222.49904	172.82759	-667.56635	297.48141	160.67244	-630.62189	305.83737	161.76447	-559.98999	263.13821	162.99420	-528.27325	304.36093	146.42050	-242.80267	126.36031	1081.77832				-794.64215	304.91116	682.80017	-673.20825	55.95391	152.58054	-789.71161	166.16168	189.69312	-760.16748	221.46379	204.92004	-588.72949	-70.33398	547.66254	-754.79315	-0.06021	210.07114	-789.12701	65.63911	179.36099	-531.67432	190.44867	535.21545	-644.49072	-61.35152	453.37027	-876.11523	-78.83643	141.19333	-673.73120	172.37834	153.43518	-549.00446	43.23890	539.60400	-725.44666	-18.34816	698.06927	-429.17963	-33.99889	878.08197	-689.36304	-82.97971	583.06561				-1033.32336	108.51546	740.33655	
412	8.220	-722.83740	237.17249	698.52887	-801.49133	-81.05665	662.38818	-696.92554	152.03545	208.70450	-572.57843	296.63351	515.61847	-534.63568	-17.57743	462.48169	-631.62653	292.62277	461.61456	-520.93860	249.08272	475.53073	-701.43518	81.79799	209.01999	-603.07788	297.16394	545.74921	-517.67413	-72.43645	142.88310	-665.83978	-62.30820	166.88808	-705.35883	314.38644	591.14606	-625.10425	-72.85275	168.33524	-882.52582	296.01248	144.52502	-574.56982	-67.51346	509.20355	-601.95117	19.41355	165.10374	-559.78656	-42.88135	162.92923	-593.79712	222.27039	172.66408	-667.56970	297.41867	160.61891	-630.56268	305.58813	161.60373	-559.98999	263.13821	162.99420	-528.42596	304.34100	146.44370	-241.82318	124.57720	1084.58606	-432.83063	281.54089	886.41748	-793.89874	304.13138	685.04987	-673.06433	56.68425	153.01784	-789.70758	166.06111	189.52904	-760.15887	221.60091	205.07407	-588.72363	-71.36449	547.52948	-754.70721	-0.11244	210.07886	-789.15637	65.33761	179.50754	-531.37671	189.81314	535.45612	-644.43372	-62.32632	453.37640	-876.11493	-78.94045	141.06699	-673.63000	172.53700	153.18185	-548.54559	42.08804	539.32343	-724.30182	-19.71413	699.24615	-428.56503	-34.97842	880.92572	-689.01868	-83.20295	583.35333				-1031.96094	107.26244	743.05554	
413	8.240	-721.83008	235.13158	699.57764	-800.50177	-82.24809	663.72919	-696.69006	152.18744	208.32397	-572.20239	295.30191	515.59851	-534.75812	-18.14877	462.51541	-631.31195	291.99414	461.78058	-521.19257	248.41585	475.73486	-701.53790	81.59030	208.89211	-602.51910	296.42685	546.34552	-517.49463	-72.33054	142.93828	-665.93878	-62.39231	166.53214	-704.73755	313.48352	592.82141	-625.30676	-73.56861	167.96298	-882.81763	296.10080	144.55701	-574.28741	-68.26309	509.05658	-601.92615	19.27025	165.05165	-559.79297	-42.95802	162.93898	-593.73846	222.42087	172.54623	-667.56970	297.41867	160.61891	-630.64111	305.75259	161.48169	-559.98999	263.13821	162.99420	-528.42596	304.34100	146.44370	-241.09058	122.78059	1088.00854	-432.20096	280.42545	889.08154	-792.74304	303.10306	686.98529	-673.06451	56.50845	153.08594	-789.87262	166.07504	189.46284	-760.07916	221.69859	205.20647	-588.36169	-72.03836	547.20581	-755.78662	0.00205	209.53604	-788.97369	65.42462	179.51755	-531.47931	188.28093	534.79785	-644.47577	-62.80342	452.99588	-875.38147	-78.22253	139.93684	-673.73120	172.37834	153.43518	-548.23743	41.17389	539.28333	-723.23102	-21.50741	700.78564	-427.94836	-37.71315	884.89063	-688.21167	-84.62459	584.27850				-1030.71472	106.42010	746.09454	
